<?xml version="1.0" standalone="no"?>
<!DOCTYPE svg PUBLIC "-//W3C//DTD SVG 1.1//EN"
        "http://www.w3.org/Graphics/SVG/1.1/DTD/svg11.dtd">
<svg class="icon" width="200px" height="200.00px" viewBox="0 0 1024 1024" version="1.1"
     xmlns="http://www.w3.org/2000/svg">
    <path fill="#000000" d="M814.335433 1023.99808H209.664567c-17.365301 0-33.301271-6.86932-44.842583-19.327964s-17.173301-28.863946-15.850637-46.165247l53.994566-709.012003c2.602662-34.325269 32.746605-62.25055 67.17854-62.25055h500.00973c34.666602 0 64.447879 28.159947 66.325209 62.762549l39.423926 708.884004A61.226552 61.226552 0 0 1 814.335433 1023.99808zM270.144453 229.908902c-12.43731 0-23.701289 10.453314-24.639953 22.805291L191.509934 961.74753a18.154633 18.154633 0 0 0 4.607992 13.909307 18.197299 18.197299 0 0 0 13.546641 5.674656h604.670866a18.986631 18.986631 0 0 0 13.930641-5.845322 18.901298 18.901298 0 0 0 5.05599-14.229307L793.919471 252.37286a24.383954 24.383954 0 0 0-23.743955-22.463958H270.144453z"  /><path fill="#000000" d="M675.925026 289.322124a21.333293 21.333293 0 0 1-21.333293-21.333293C654.591733 143.74373 590.613186 42.666587 511.978667 42.666587s-142.591733 101.077144-142.591733 225.322244a21.333293 21.333293 0 0 1-42.666587 0C326.720347 120.213108 409.813525 0 511.978667 0s185.279653 120.213108 185.279652 267.988831a21.333293 21.333293 0 0 1-21.333293 21.333293z"  /></svg>